<svg preserveAspectRatio="none" overflow="visible" style="display: block;" width="1.93369" height="1.45127" viewBox="0 0 1.93369 1.45127" fill="none" xmlns="http://www.w3.org/2000/svg">
<g id="Group">
<path id="Vector" d="M1.56576 0.116559C1.18998 -0.0713303 0.699833 -0.0263989 0.352647 0.210505C0.19335 0.320788 0.058559 0.467831 0.013629 0.659804C-0.0272165 0.831355 0.0258794 1.00699 0.144331 1.13361C0.417996 1.41953 0.863215 1.50939 1.23899 1.41544C1.58209 1.32967 1.92111 1.06009 1.93336 0.680228C1.93745 0.512762 1.8966 0.345296 1.74956 0.243182C1.68829 0.198252 1.62703 0.161489 1.56576 0.116559C1.51674 0.0838825 1.42279 0.0838826 1.3697 0.0879671C1.29617 0.0961362 1.20632 0.120644 1.14505 0.165575C1.05111 0.230927 0.981668 0.337127 1.10012 0.418818C1.14913 0.451494 1.19815 0.484169 1.24716 0.516846C1.25533 0.525015 1.26758 0.529101 1.27575 0.53727C1.30843 0.557692 1.25533 0.504592 1.2635 0.529099C1.27167 0.545437 1.29618 0.565859 1.30843 0.582197C1.29209 0.553605 1.30434 0.574028 1.30843 0.582197C1.31251 0.598535 1.32068 0.610789 1.32476 0.627127C1.33293 0.651634 1.33702 0.680228 1.34111 0.70882C1.34111 0.721074 1.34519 0.729243 1.34519 0.741497C1.34519 0.733328 1.34519 0.712903 1.34519 0.745579C1.3411 0.802763 1.33294 0.855863 1.3166 0.908962C1.31252 0.921215 1.30843 0.929385 1.30435 0.941639C1.3166 0.904878 1.30843 0.929384 1.30435 0.937553C1.29209 0.962061 1.27984 0.986568 1.2635 1.01108C1.25533 1.02333 1.22674 1.04784 1.25942 1.01516C1.25125 1.02333 1.24307 1.0315 1.2349 1.03967C1.23082 1.04375 1.21448 1.06417 1.20632 1.06417C1.23491 1.04375 1.23899 1.03967 1.21449 1.05601C1.2104 1.06009 1.20223 1.06417 1.19814 1.06826C1.19406 1.07234 1.18589 1.07643 1.18181 1.07643C1.16139 1.08868 1.16139 1.08868 1.18181 1.07643C1.18589 1.07235 1.19406 1.07234 1.19814 1.06826C1.18998 1.07234 1.18181 1.07643 1.17364 1.08051C1.13279 1.10093 1.14913 1.07235 1.18997 1.07643C1.1818 1.07643 1.1573 1.0846 1.15321 1.08868C1.10012 1.10502 1.17364 1.08051 1.17772 1.0846C1.16955 1.08051 1.13688 1.08868 1.12871 1.08868C1.08786 1.09685 1.19815 1.09277 1.12871 1.08868C1.10829 1.08868 1.08786 1.0846 1.06335 1.0846C1.07152 1.0846 1.11646 1.09685 1.06744 1.0846C1.05519 1.08051 1.03885 1.08051 1.02659 1.07643C1.01434 1.07235 0.998 1.06826 0.985747 1.06417C0.989831 1.06417 0.924484 1.04375 0.953076 1.05601C0.981668 1.06826 0.916314 1.03967 0.920399 1.04375C0.908145 1.03967 0.895887 1.0315 0.883633 1.02741C0.850957 1.01108 0.822371 0.994739 0.793779 0.974316C0.744764 0.945724 0.732507 0.937554 0.687577 0.88037C0.642647 0.831356 0.630396 0.810934 0.614058 0.741497C0.601804 0.688398 0.601802 0.64755 0.61814 0.582197C0.622225 0.565859 0.626313 0.549522 0.634482 0.533184C0.630397 0.545438 0.622224 0.553605 0.642646 0.525013C0.650815 0.51276 0.654901 0.500509 0.66307 0.492339C0.667155 0.48417 0.708002 0.43924 0.671241 0.476001C0.691664 0.455578 0.71617 0.422899 0.740678 0.406561C0.691663 0.431069 0.728422 0.418815 0.74476 0.406561C0.752929 0.402477 0.810112 0.365719 0.769266 0.390226C0.724336 0.414733 0.785606 0.382055 0.78969 0.382055C0.797859 0.37797 0.801945 0.377972 0.810114 0.373887C0.834622 0.365718 0.834622 0.365718 0.810114 0.373887C0.801945 0.377972 0.797859 0.37797 0.78969 0.382055C0.801944 0.37797 0.8142 0.373886 0.830538 0.369802C0.887722 0.353464 0.765185 0.373886 0.830538 0.369802C0.842792 0.369802 0.859126 0.365716 0.87138 0.365716C0.940817 0.357547 0.810113 0.361632 0.879551 0.365716C0.891804 0.365716 0.908145 0.365716 0.920399 0.365716C0.932652 0.365716 0.948987 0.365717 0.96124 0.369802C0.953071 0.369802 0.944903 0.365716 0.936734 0.365716C0.965326 0.361632 1.00617 0.377972 1.03477 0.390226C1.03477 0.390226 1.09603 0.410647 1.06335 0.398394C1.04293 0.390224 1.1042 0.418815 1.10828 0.4229C1.23491 0.484168 1.41871 0.451494 1.52899 0.373887C1.59843 0.316704 1.69646 0.185996 1.56576 0.116559Z" fill="#E8A523"/>
</g>
</svg>
