<svg preserveAspectRatio="none" overflow="visible" style="display: block;" width="31.9374" height="31.9374" viewBox="0 0 31.9374 31.9374" fill="none" xmlns="http://www.w3.org/2000/svg">
<g id="Check small round">
<path id="Vector" d="M13.3073 18.0979L21.1586 10.2466C21.4025 10.0026 21.713 9.88065 22.0901 9.88065C22.4671 9.88065 22.7776 10.0026 23.0216 10.2466C23.2655 10.4906 23.3875 10.8011 23.3875 11.1781C23.3875 11.5551 23.2655 11.8656 23.0216 12.1096L14.2388 20.8924C13.9726 21.1586 13.6621 21.2916 13.3073 21.2916C12.9524 21.2916 12.6419 21.1586 12.3758 20.8924L8.91587 17.4325C8.6719 17.1886 8.54992 16.878 8.54992 16.501C8.54992 16.124 8.6719 15.8135 8.91587 15.5695C9.15983 15.3255 9.47034 15.2036 9.84738 15.2036C10.2244 15.2036 10.5349 15.3255 10.7789 15.5695L13.3073 18.0979Z" fill="#E0F8F6"/>
</g>
</svg>
